<svg width="43" height="70" viewBox="0 0 43 70" fill="none" xmlns="http://www.w3.org/2000/svg">
<path fill-rule="evenodd" clip-rule="evenodd" d="M42.3538 11.7712L0 4.16538V0L42.3538 7.60587V11.7712ZM0 12.3863L42.3538 19.9922V15.8268L0 8.22095V12.3863ZM42.3538 28.2134L0 20.6075V16.4421L42.3538 24.048V28.2134ZM0 28.8285L42.3538 36.4343V32.269L0 24.6615V28.8285ZM42.3538 44.6553L0 37.0494V32.8825L42.3538 40.4884V44.6553ZM0 45.2689L42.3538 52.8748V48.7094L0 41.1035V45.2689ZM42.3538 61.096L0 53.4901V49.3247L42.3538 56.9306V61.096ZM42.3538 69.3169L0 61.711V57.5457L42.3538 65.1515V69.3169Z" fill="white" fill-opacity="0.18"/>
</svg>
