<svg width="18" height="18" viewBox="0 0 18 18" fill="none" xmlns="http://www.w3.org/2000/svg">
<g clip-path="url(#clip0_4808_18091)">
<path d="M12.2713 8.99989C12.2713 9.48852 12.1264 9.96618 11.8549 10.3725C11.5834 10.7788 11.1976 11.0954 10.7461 11.2824C10.2947 11.4694 9.79793 11.5183 9.31868 11.423C8.83943 11.3277 8.39921 11.0924 8.0537 10.7469C7.70818 10.4013 7.47288 9.96112 7.37755 9.48187C7.28222 9.00263 7.33115 8.50587 7.51814 8.05443C7.70513 7.60299 8.0218 7.21714 8.42808 6.94567C8.83437 6.67419 9.31203 6.5293 9.80067 6.5293C10.4557 6.53005 11.0836 6.79058 11.5468 7.25374C12.01 7.71691 12.2705 8.34487 12.2713 8.99989ZM17.5213 5.60283V12.3969C17.52 13.5432 17.064 14.6422 16.2535 15.4527C15.443 16.2632 14.344 16.7192 13.1977 16.7205H6.40361C5.25733 16.7192 4.15838 16.2632 3.34784 15.4527C2.53731 14.6422 2.08138 13.5432 2.08008 12.3969V5.60283C2.08138 4.45655 2.53731 3.3576 3.34784 2.54706C4.15838 1.73653 5.25733 1.2806 6.40361 1.2793H13.1977C14.344 1.2806 15.443 1.73653 16.2535 2.54706C17.064 3.3576 17.52 4.45655 17.5213 5.60283ZM13.5065 8.99989C13.5065 8.26693 13.2892 7.55044 12.882 6.94101C12.4748 6.33158 11.896 5.85659 11.2188 5.5761C10.5417 5.29561 9.79656 5.22222 9.07768 5.36521C8.35881 5.5082 7.69849 5.86115 7.18021 6.37943C6.66193 6.89771 6.30898 7.55803 6.16599 8.2769C6.023 8.99577 6.09639 9.7409 6.37688 10.4181C6.65737 11.0952 7.13236 11.674 7.74179 12.0812C8.35122 12.4884 9.06771 12.7058 9.80067 12.7058C10.7832 12.7047 11.7251 12.3139 12.4199 11.6191C13.1146 10.9244 13.5054 9.9824 13.5065 8.99989ZM14.7418 4.98518C14.7418 4.80194 14.6875 4.62282 14.5857 4.47046C14.4839 4.3181 14.3392 4.19935 14.1699 4.12923C14.0006 4.05911 13.8143 4.04076 13.6346 4.07651C13.4549 4.11226 13.2898 4.2005 13.1603 4.33007C13.0307 4.45963 12.9425 4.62472 12.9067 4.80443C12.871 4.98415 12.8893 5.17043 12.9594 5.33972C13.0295 5.50901 13.1483 5.65371 13.3007 5.75551C13.453 5.85731 13.6321 5.91165 13.8154 5.91165C14.0611 5.91165 14.2967 5.81404 14.4705 5.64029C14.6442 5.46655 14.7418 5.23089 14.7418 4.98518Z" fill="white"/>
</g>
<defs>
<clipPath id="clip0_4808_18091">
<rect width="16" height="16" fill="white" transform="translate(1.80078 1)"/>
</clipPath>
</defs>
</svg>
