<svg width="123" height="39" viewBox="0 0 123 39" fill="none" xmlns="http://www.w3.org/2000/svg">
<path d="M113.205 0.00012675H9.80048C9.42356 0.00012675 9.05116 0.00012675 8.67523 0.00207674C8.36055 0.00402674 8.04837 0.00969147 7.73067 0.0144592C7.04046 0.0221634 6.35188 0.0797608 5.6709 0.186751C4.99088 0.29607 4.33217 0.502168 3.71703 0.798074C3.10265 1.09648 2.54127 1.48424 2.05326 1.94726C1.56268 2.40899 1.15375 2.94268 0.842191 3.52782C0.529768 4.11179 0.313133 4.73758 0.199768 5.38355C0.0853251 6.02871 0.0237423 6.68131 0.0155723 7.3355C0.00603364 7.63443 0.00502632 7.93436 0 8.23333V30.7697C0.00502632 31.0724 0.00603364 31.3657 0.0155723 31.6685C0.0237448 32.3227 0.0853276 32.9752 0.199768 33.6204C0.31282 34.2667 0.529468 34.8929 0.842191 35.477C1.15361 36.0603 1.5626 36.5918 2.05326 37.051C2.53942 37.5161 3.10116 37.9041 3.71703 38.2002C4.33216 38.4969 4.99081 38.7042 5.6709 38.8152C6.35199 38.9214 7.04051 38.979 7.73067 38.9876C8.04837 38.9943 8.36055 38.9981 8.67523 38.9981C9.05115 39 9.42358 39 9.80048 39H113.205C113.574 39 113.95 39 114.319 38.9981C114.632 38.9981 114.954 38.9943 115.267 38.9876C115.956 38.9795 116.643 38.9218 117.323 38.8152C118.005 38.7035 118.666 38.4962 119.284 38.2002C119.899 37.9039 120.461 37.5159 120.946 37.051C121.436 36.59 121.846 36.0589 122.161 35.477C122.471 34.8924 122.686 34.2663 122.797 33.6204C122.912 32.9751 122.976 32.3227 122.988 31.6685C122.992 31.3657 122.992 31.0724 122.992 30.7697C123 30.4154 123 30.0632 123 29.7032V9.29782C123 8.94077 123 8.58657 122.992 8.23333C122.992 7.93436 122.992 7.63443 122.988 7.33546C122.976 6.68122 122.912 6.02876 122.797 5.38351C122.685 4.73791 122.471 4.11218 122.161 3.52778C121.526 2.35494 120.52 1.40025 119.284 0.797986C118.666 0.502803 118.005 0.29676 117.323 0.186663C116.643 0.0792017 115.956 0.0215843 115.267 0.0143227C114.954 0.00956472 114.632 0.00385124 114.319 0.00194999C113.95 0 113.574 0.00012675 113.205 0.00012675Z" fill="#A6A6A6"/>
<path d="M8.78322 37.9981C8.47066 37.9981 8.16566 37.9943 7.85555 37.9877C7.21314 37.9798 6.57223 37.9271 5.93808 37.83C5.34677 37.7339 4.77394 37.5553 4.23851 37.3C3.70798 37.0468 3.22409 36.7148 2.80538 36.3167C2.38062 35.9232 2.02698 35.467 1.75849 34.9659C1.48704 34.4615 1.29917 33.9209 1.20145 33.3629C1.09591 32.7633 1.03881 32.157 1.03064 31.5493C1.02414 31.3453 1.01562 30.6661 1.01562 30.6661V8.32159C1.01562 8.32159 1.02469 7.65281 1.03069 7.45633C1.03852 6.84955 1.09528 6.2442 1.2005 5.64554C1.29841 5.08599 1.48642 4.54383 1.75802 4.03784C2.02552 3.53709 2.3772 3.08046 2.7994 2.68564C3.22114 2.28707 3.70657 1.95335 4.238 1.69664C4.77221 1.44213 5.34395 1.26477 5.93407 1.1705C6.5703 1.07239 7.21344 1.01934 7.85807 1.01181L8.78372 1H114.209L115.146 1.01228C115.785 1.01944 116.422 1.07201 117.053 1.16955C117.649 1.26501 118.226 1.4436 118.767 1.69947C119.831 2.21681 120.698 3.03529 121.244 4.0402C121.511 4.5427 121.697 5.08043 121.793 5.63515C121.9 6.23872 121.959 6.84883 121.971 7.46059C121.974 7.73452 121.974 8.02876 121.974 8.32159C121.983 8.68432 121.983 9.02957 121.983 9.37765V29.6213C121.983 29.9727 121.983 30.3156 121.974 30.6613C121.974 30.9759 121.974 31.264 121.97 31.5606C121.958 32.1614 121.9 32.7607 121.795 33.3534C121.699 33.9155 121.513 34.4603 121.241 34.9688C120.971 35.4644 120.619 35.9168 120.199 36.3091C119.78 36.7094 119.296 37.0433 118.764 37.2982C118.225 37.5554 117.648 37.7347 117.053 37.83C116.419 37.9276 115.778 37.9803 115.135 37.9877C114.835 37.9943 114.52 37.9981 114.214 37.9981L113.102 38L8.78322 37.9981Z" fill="black"/>
<path d="M23.9705 19.8397C23.981 19.0445 24.1957 18.2649 24.5947 17.5733C24.9937 16.8817 25.564 16.3006 26.2527 15.8842C25.8152 15.2695 25.2381 14.7637 24.5671 14.4069C23.8962 14.0501 23.1499 13.8521 22.3876 13.8286C20.7614 13.6607 19.1848 14.7859 18.3562 14.7859C17.5114 14.7859 16.2356 13.8453 14.8616 13.8731C13.973 13.9013 13.1069 14.1556 12.3477 14.611C11.5886 15.0664 10.9624 15.7075 10.53 16.4718C8.6571 19.6618 10.0541 24.3499 11.8482 26.9284C12.7458 28.191 13.7949 29.6014 15.1676 29.5514C16.5108 29.4966 17.0125 28.7087 18.6339 28.7087C20.2403 28.7087 20.711 29.5514 22.1115 29.5196C23.5529 29.4965 24.461 28.2513 25.3271 26.9768C25.9721 26.0771 26.4683 25.0828 26.7976 24.0306C25.9602 23.6822 25.2456 23.099 24.7428 22.3537C24.2401 21.6085 23.9715 20.7341 23.9705 19.8397Z" fill="white"/>
<path d="M21.3315 12.133C22.1174 11.2049 22.5046 10.012 22.4108 8.80762C21.2102 8.93167 20.1011 9.49619 19.3046 10.3887C18.9151 10.8247 18.6169 11.3319 18.4268 11.8814C18.2368 12.4308 18.1587 13.0118 18.197 13.591C18.7975 13.597 19.3917 13.469 19.9346 13.2164C20.4776 12.9639 20.9552 12.5935 21.3315 12.133Z" fill="white"/>
<path d="M40.9622 26.3553H36.3783L35.2775 29.5529H33.3359L37.6777 17.7227H39.6949L44.0367 29.5529H42.0621L40.9622 26.3553ZM36.8531 24.8798H40.4865L38.6954 19.6903H38.6452L36.8531 24.8798Z" fill="white"/>
<path d="M53.4152 25.2408C53.4152 27.9211 51.9569 29.6432 49.7562 29.6432C49.1988 29.6719 48.6444 29.5455 48.1565 29.2787C47.6686 29.0118 47.267 28.6152 46.9976 28.1342H46.9559V32.4063H45.1562V20.9278H46.8983V22.3624H46.9314C47.2132 21.8837 47.6216 21.4891 48.1132 21.2206C48.6048 20.9521 49.1612 20.8197 49.7231 20.8375C51.9484 20.8375 53.4152 22.568 53.4152 25.2408ZM51.5654 25.2408C51.5654 23.4946 50.648 22.3465 49.2484 22.3465C47.8733 22.3465 46.9484 23.5188 46.9484 25.2408C46.9484 26.9787 47.8733 28.1426 49.2484 28.1426C50.6481 28.1426 51.5654 27.0029 51.5654 25.2408Z" fill="white"/>
<path d="M63.0715 25.2408C63.0715 27.9211 61.6132 29.6432 59.4125 29.6432C58.855 29.6719 58.3006 29.5455 57.8127 29.2787C57.3248 29.0118 56.9232 28.6151 56.6538 28.1342H56.6122V32.4063H54.8125V20.9278H56.5545V22.3623H56.5876C56.8694 21.8837 57.2778 21.4891 57.7694 21.2206C58.261 20.9521 58.8174 20.8197 59.3794 20.8375C61.6047 20.8375 63.0715 22.568 63.0715 25.2408ZM61.2216 25.2408C61.2216 23.4946 60.3043 22.3465 58.9046 22.3465C57.5296 22.3465 56.6047 23.5188 56.6047 25.2408C56.6047 26.9787 57.5296 28.1425 58.9046 28.1425C60.3043 28.1425 61.2216 27.0029 61.2216 25.2408Z" fill="white"/>
<path d="M69.4438 26.2567C69.5772 27.4298 70.7357 28.2001 72.3188 28.2001C73.8358 28.2001 74.9271 27.4298 74.9271 26.372C74.9271 25.4537 74.2689 24.9039 72.7104 24.5271L71.1518 24.1578C68.9436 23.6331 67.9184 22.6171 67.9184 20.9686C67.9184 18.9274 69.7266 17.5254 72.2942 17.5254C74.8354 17.5254 76.5774 18.9274 76.636 20.9686H74.8193C74.7105 19.788 73.7185 19.0753 72.2687 19.0753C70.8189 19.0753 69.8268 19.7964 69.8268 20.8458C69.8268 21.6822 70.4605 22.1743 72.0105 22.5511L73.3354 22.8711C75.8028 23.4451 76.828 24.4201 76.828 26.1505C76.828 28.3638 75.0358 29.75 72.1854 29.75C69.5185 29.75 67.7179 28.3964 67.6016 26.2566L69.4438 26.2567Z" fill="white"/>
<path d="M80.708 18.8867V20.9279H82.3753V22.3299H80.708V27.0849C80.708 27.8236 81.0419 28.1678 81.7748 28.1678C81.9727 28.1644 82.1703 28.1507 82.3668 28.1268V29.5205C82.0373 29.581 81.7024 29.6085 81.3672 29.6023C79.5921 29.6023 78.8998 28.9464 78.8998 27.2737V22.3299H77.625V20.9279H78.8998V18.8867H80.708Z" fill="white"/>
<path d="M83.3438 25.2404C83.3438 22.5266 84.9685 20.8213 87.5021 20.8213C90.0441 20.8213 91.6613 22.5266 91.6613 25.2404C91.6613 27.9616 90.0527 29.6595 87.5021 29.6595C84.9524 29.6595 83.3438 27.9616 83.3438 25.2404ZM89.8276 25.2404C89.8276 23.3788 88.9604 22.2801 87.5021 22.2801C86.0438 22.2801 85.1775 23.3872 85.1775 25.2404C85.1775 27.1094 86.0438 28.1998 87.5021 28.1998C88.9604 28.1998 89.8276 27.1094 89.8276 25.2404Z" fill="white"/>
<path d="M93.1406 20.9277H94.8571V22.3958H94.8987C95.0149 21.9372 95.2879 21.532 95.672 21.2483C96.0561 20.9645 96.5277 20.8194 97.0077 20.8374C97.2151 20.8367 97.4219 20.8589 97.6243 20.9035V22.5595C97.3625 22.4808 97.0893 22.4447 96.8157 22.4525C96.5542 22.4421 96.2936 22.4874 96.0516 22.5854C95.8097 22.6835 95.5922 22.8318 95.414 23.0203C95.2358 23.2089 95.1012 23.4331 95.0195 23.6776C94.9377 23.9221 94.9107 24.1812 94.9403 24.4369V29.5529H93.1406L93.1406 20.9277Z" fill="white"/>
<path d="M105.925 27.0192C105.683 28.585 104.133 29.6595 102.149 29.6595C99.5988 29.6595 98.0156 27.9784 98.0156 25.2813C98.0156 22.5759 99.6073 20.8213 102.074 20.8213C104.499 20.8213 106.025 22.4605 106.025 25.0757V25.6823H99.8324V25.7893C99.8038 26.1067 99.8442 26.4265 99.9509 26.7274C100.058 27.0283 100.228 27.3034 100.451 27.5345C100.674 27.7655 100.945 27.9473 101.245 28.0676C101.545 28.1879 101.867 28.2441 102.191 28.2324C102.616 28.2716 103.043 28.1747 103.408 27.9561C103.773 27.7375 104.056 27.4089 104.216 27.0192L105.925 27.0192ZM99.8409 24.445H104.224C104.24 24.1595 104.196 23.8739 104.095 23.606C103.994 23.3381 103.837 23.0937 103.635 22.8882C103.433 22.6826 103.19 22.5204 102.922 22.4115C102.653 22.3027 102.364 22.2497 102.074 22.2559C101.781 22.2542 101.49 22.3095 101.219 22.4189C100.948 22.5282 100.701 22.6892 100.494 22.8928C100.286 23.0963 100.121 23.3382 100.009 23.6046C99.8974 23.8711 99.8401 24.1566 99.8409 24.445Z" fill="white"/>
<path d="M36.6341 8.81797C37.0114 8.79134 37.39 8.84741 37.7426 8.98215C38.0952 9.11689 38.413 9.32693 38.6731 9.59713C38.9332 9.86733 39.1291 10.191 39.2467 10.5447C39.3643 10.8983 39.4006 11.2733 39.353 11.6425C39.353 13.4585 38.3553 14.5024 36.6341 14.5024H34.5469V8.81797H36.6341ZM35.4444 13.6985H36.5338C36.8034 13.7143 37.0732 13.6709 37.3236 13.5712C37.574 13.4715 37.7986 13.3182 37.9812 13.1224C38.1637 12.9265 38.2995 12.6931 38.3788 12.4391C38.4581 12.1851 38.4788 11.9169 38.4394 11.6541C38.4759 11.3922 38.4531 11.1257 38.3727 10.8736C38.2922 10.6214 38.156 10.3899 37.9738 10.1957C37.7917 10.0014 37.5682 9.84914 37.3192 9.74983C37.0703 9.65053 36.8021 9.60663 36.5338 9.62127H35.4444V13.6985Z" fill="white"/>
<path d="M40.3691 12.3557C40.3417 12.0738 40.3745 11.7893 40.4653 11.5206C40.5562 11.2519 40.7032 11.0048 40.8968 10.7953C41.0904 10.5857 41.3265 10.4182 41.5897 10.3037C41.853 10.1891 42.1377 10.1299 42.4256 10.1299C42.7134 10.1299 42.9981 10.1891 43.2614 10.3037C43.5247 10.4182 43.7607 10.5857 43.9543 10.7953C44.1479 11.0048 44.2949 11.2519 44.3858 11.5206C44.4767 11.7893 44.5094 12.0738 44.482 12.3557C44.51 12.6379 44.4776 12.9227 44.3869 13.1919C44.2963 13.461 44.1494 13.7085 43.9557 13.9185C43.7621 14.1285 43.5259 14.2963 43.2623 14.4111C42.9988 14.5259 42.7138 14.5853 42.4256 14.5853C42.1373 14.5853 41.8523 14.5259 41.5888 14.4111C41.3252 14.2963 41.0891 14.1285 40.8954 13.9185C40.7017 13.7085 40.5548 13.461 40.4642 13.1919C40.3736 12.9227 40.3412 12.6379 40.3691 12.3557ZM43.5968 12.3557C43.5968 11.4258 43.1722 10.882 42.427 10.882C41.6789 10.882 41.2581 11.4258 41.2581 12.3557C41.2581 13.293 41.6789 13.8326 42.427 13.8326C43.1722 13.8326 43.5968 13.2893 43.5968 12.3557Z" fill="white"/>
<path d="M49.9474 14.5027H49.0547L48.1534 11.3432H48.0853L47.1878 14.5027H46.3036L45.1016 10.2129H45.9745L46.7556 13.4863H46.8199L47.7165 10.2129H48.5421L49.4386 13.4863H49.5067L50.2841 10.2129H51.1447L49.9474 14.5027Z" fill="white"/>
<path d="M52.1563 10.213H52.9847V10.8945H53.049C53.1581 10.6497 53.3421 10.4445 53.5754 10.3075C53.8086 10.1705 54.0795 10.1085 54.3503 10.1302C54.5625 10.1145 54.7755 10.146 54.9737 10.2223C55.1718 10.2986 55.35 10.4178 55.4949 10.571C55.6399 10.7242 55.7479 10.9076 55.8111 11.1075C55.8742 11.3074 55.8908 11.5187 55.8597 11.7257V14.5027H54.9991V11.9383C54.9991 11.2489 54.6946 10.9061 54.0581 10.9061C53.914 10.8995 53.7702 10.9236 53.6365 10.9768C53.5028 11.03 53.3824 11.111 53.2835 11.2143C53.1846 11.3175 53.1096 11.4406 53.0635 11.575C53.0175 11.7095 53.0016 11.8521 53.0168 11.9932V14.5028H52.1562L52.1563 10.213Z" fill="white"/>
<path d="M57.2266 8.53809H58.0872V14.5025H57.2266V8.53809Z" fill="white"/>
<path d="M59.2831 12.3558C59.2557 12.0738 59.2886 11.7894 59.3794 11.5206C59.4703 11.2519 59.6173 11.0048 59.811 10.7953C60.0046 10.5857 60.2407 10.4182 60.5039 10.3037C60.7672 10.1891 61.0519 10.1299 61.3398 10.1299C61.6277 10.1299 61.9125 10.1891 62.1757 10.3037C62.439 10.4182 62.6751 10.5857 62.8687 10.7953C63.0623 11.0048 63.2093 11.2519 63.3002 11.5206C63.3911 11.7894 63.4239 12.0738 63.3965 12.3558C63.4244 12.638 63.392 12.9228 63.3013 13.1919C63.2107 13.4611 63.0638 13.7086 62.8701 13.9186C62.6764 14.1286 62.4402 14.2964 62.1766 14.4112C61.9131 14.526 61.6281 14.5853 61.3398 14.5853C61.0516 14.5853 60.7666 14.526 60.503 14.4112C60.2395 14.2964 60.0033 14.1286 59.8096 13.9186C59.6159 13.7086 59.469 13.4611 59.3783 13.1919C59.2877 12.9228 59.2552 12.638 59.2831 12.3558ZM62.5109 12.3558C62.5109 11.4259 62.0862 10.8821 61.341 10.8821C60.593 10.8821 60.1721 11.4259 60.1721 12.3558C60.1721 13.2931 60.593 13.8327 61.341 13.8327C62.0862 13.8327 62.5109 13.2893 62.5109 12.3558Z" fill="white"/>
<path d="M64.3047 13.2893C64.3047 12.5171 64.8891 12.072 65.9266 12.0087L67.1078 11.9417V11.5714C67.1078 11.1184 66.8033 10.8625 66.215 10.8625C65.7346 10.8625 65.4017 11.036 65.3062 11.3393H64.473C64.561 10.6025 65.2655 10.1299 66.2548 10.1299C67.348 10.1299 67.9646 10.6653 67.9646 11.5714V14.5025H67.1362V13.8996H67.0681C66.9299 14.1159 66.7358 14.2922 66.5057 14.4105C66.2756 14.5288 66.0176 14.5849 65.7583 14.5732C65.5752 14.5919 65.3902 14.5727 65.2151 14.5167C65.0401 14.4608 64.8789 14.3694 64.7419 14.2485C64.605 14.1275 64.4953 13.9797 64.42 13.8145C64.3447 13.6493 64.3054 13.4704 64.3047 13.2893ZM67.1078 12.9227V12.5641L66.0429 12.6311C65.4424 12.6706 65.17 12.8716 65.17 13.2498C65.17 13.6358 65.5105 13.8605 65.9786 13.8605C66.1158 13.8742 66.2544 13.8606 66.3861 13.8205C66.5178 13.7804 66.64 13.7146 66.7453 13.6271C66.8506 13.5396 66.937 13.4322 66.9993 13.3112C67.0616 13.1902 67.0985 13.0581 67.1078 12.9227Z" fill="white"/>
<path d="M69.1016 12.3557C69.1016 11.0002 69.8099 10.1415 70.9117 10.1415C71.1842 10.1292 71.4547 10.1934 71.6915 10.3267C71.9283 10.4599 72.1216 10.6568 72.2489 10.8941H72.3132V8.53809H73.1738V14.5025H72.3492V13.8247H72.2811C72.1439 14.0605 71.9438 14.2549 71.7025 14.3868C71.4611 14.5187 71.1876 14.5832 70.9117 14.5732C69.8023 14.5732 69.1016 13.7145 69.1016 12.3557ZM69.9906 12.3557C69.9906 13.2656 70.4265 13.8131 71.1557 13.8131C71.881 13.8131 72.3293 13.2577 72.3293 12.3595C72.3293 11.4654 71.8763 10.9021 71.1557 10.9021C70.4312 10.9021 69.9906 11.4533 69.9906 12.3557Z" fill="white"/>
<path d="M76.7285 12.3557C76.7011 12.0738 76.7338 11.7893 76.8247 11.5206C76.9156 11.2519 77.0626 11.0048 77.2562 10.7953C77.4498 10.5857 77.6858 10.4182 77.9491 10.3037C78.2124 10.1891 78.4971 10.1299 78.7849 10.1299C79.0728 10.1299 79.3575 10.1891 79.6208 10.3037C79.884 10.4182 80.1201 10.5857 80.3137 10.7953C80.5073 11.0048 80.6543 11.2519 80.7451 11.5206C80.836 11.7893 80.8688 12.0738 80.8414 12.3557C80.8693 12.6379 80.8369 12.9227 80.7463 13.1919C80.6557 13.461 80.5088 13.7085 80.3151 13.9185C80.1214 14.1285 79.8852 14.2963 79.6217 14.4111C79.3582 14.5259 79.0732 14.5853 78.7849 14.5853C78.4967 14.5853 78.2117 14.5259 77.9481 14.4111C77.6846 14.2963 77.4484 14.1285 77.2548 13.9185C77.0611 13.7085 76.9142 13.461 76.8236 13.1919C76.7329 12.9227 76.7005 12.6379 76.7285 12.3557ZM79.9562 12.3557C79.9562 11.4258 79.5316 10.882 78.7864 10.882C78.0383 10.882 77.6175 11.4258 77.6175 12.3557C77.6175 13.293 78.0383 13.8326 78.7864 13.8326C79.5316 13.8326 79.9562 13.2893 79.9562 12.3557Z" fill="white"/>
<path d="M82 10.213H82.8284V10.8945H82.8928C83.0019 10.6497 83.1859 10.4445 83.4191 10.3075C83.6524 10.1705 83.9233 10.1085 84.1941 10.1302C84.4062 10.1145 84.6193 10.146 84.8174 10.2223C85.0156 10.2986 85.1937 10.4178 85.3387 10.571C85.4836 10.7242 85.5917 10.9076 85.6548 11.1075C85.718 11.3074 85.7346 11.5187 85.7034 11.7257V14.5027H84.8428V11.9383C84.8428 11.2489 84.5383 10.9061 83.9018 10.9061C83.7578 10.8995 83.614 10.9236 83.4803 10.9768C83.3466 11.03 83.2262 11.111 83.1273 11.2143C83.0284 11.3175 82.9533 11.4406 82.9073 11.575C82.8613 11.7095 82.8453 11.8521 82.8606 11.9932V14.5028H82V10.213Z" fill="white"/>
<path d="M90.5616 9.14453V10.2321H91.5064V10.9452H90.5616V13.151C90.5616 13.6004 90.7498 13.7972 91.1782 13.7972C91.2879 13.7968 91.3975 13.7903 91.5064 13.7776V14.4828C91.3519 14.51 91.1953 14.5245 91.0383 14.5261C90.0812 14.5261 89.7001 14.1949 89.7001 13.3678V10.9452H89.0078V10.2321H89.7001V9.14453H90.5616Z" fill="white"/>
<path d="M92.6797 8.53809H93.5327V10.9021H93.6008C93.7152 10.655 93.9043 10.4487 94.1422 10.3112C94.3801 10.1737 94.6554 10.1117 94.9304 10.1336C95.1415 10.1223 95.3525 10.157 95.5484 10.2351C95.7443 10.3133 95.9202 10.433 96.0637 10.5858C96.2071 10.7385 96.3145 10.9205 96.3782 11.1188C96.4419 11.3171 96.4604 11.5268 96.4322 11.7329V14.5025H95.5708V11.9417C95.5708 11.2565 95.2464 10.9095 94.6383 10.9095C94.4904 10.8976 94.3416 10.9176 94.2024 10.9681C94.0631 11.0187 93.9368 11.0985 93.8322 11.2021C93.7276 11.3057 93.6473 11.4305 93.5969 11.5678C93.5465 11.7052 93.5272 11.8517 93.5403 11.9971V14.5025H92.6797L92.6797 8.53809Z" fill="white"/>
<path d="M101.454 13.3443C101.337 13.7363 101.084 14.0755 100.738 14.3023C100.393 14.5292 99.9771 14.6294 99.5642 14.5853C99.2769 14.5928 98.9914 14.5387 98.7275 14.4267C98.4636 14.3147 98.2277 14.1476 98.036 13.9369C97.8444 13.7263 97.7016 13.4771 97.6176 13.2067C97.5337 12.9363 97.5106 12.6512 97.5498 12.3711C97.5116 12.0902 97.5351 11.8045 97.6189 11.5333C97.7026 11.2621 97.8447 11.0118 98.0353 10.7992C98.226 10.5867 98.4608 10.417 98.7239 10.3015C98.987 10.186 99.2723 10.1275 99.5604 10.13C100.774 10.13 101.506 10.9454 101.506 12.2925V12.5879H98.4265V12.6354C98.413 12.7928 98.4332 12.9512 98.4856 13.1006C98.538 13.2499 98.6215 13.3868 98.7309 13.5025C98.8402 13.6182 98.9729 13.7102 99.1205 13.7725C99.2681 13.8348 99.4273 13.8661 99.5879 13.8643C99.7937 13.8886 100.002 13.8521 100.187 13.7595C100.372 13.6669 100.524 13.5224 100.625 13.3442L101.454 13.3443ZM98.4265 11.9618H100.629C100.64 11.8178 100.62 11.6732 100.571 11.5372C100.521 11.4013 100.444 11.277 100.343 11.1723C100.241 11.0677 100.119 10.985 99.9837 10.9295C99.8482 10.8741 99.7024 10.8472 99.5557 10.8505C99.4068 10.8487 99.2591 10.8762 99.1213 10.9314C98.9834 10.9866 98.8581 11.0684 98.7529 11.1719C98.6477 11.2755 98.5646 11.3987 98.5085 11.5344C98.4525 11.67 98.4246 11.8154 98.4265 11.9618Z" fill="white"/>
</svg>
