<svg width="18" height="18" viewBox="0 0 18 18" fill="none" xmlns="http://www.w3.org/2000/svg">
<path fill-rule="evenodd" clip-rule="evenodd" d="M12.49 15.8454C12.6912 16.005 12.9506 16.0449 13.1818 15.9469C13.4131 15.8482 13.5831 15.627 13.6343 15.3589C14.1774 12.5001 15.4949 5.26421 15.9893 2.6637C16.0268 2.4677 15.9643 2.264 15.8268 2.1331C15.6893 2.0022 15.4987 1.9644 15.3287 2.0351C12.7081 3.12151 4.63767 6.51301 1.33899 7.88011C1.12962 7.96691 0.993374 8.19231 1.00025 8.43941C1.00775 8.68721 1.1565 8.90211 1.37087 8.97421C2.85021 9.46981 4.79204 10.1593 4.79204 10.1593C4.79204 10.1593 5.69952 13.2288 6.17263 14.7898C6.232 14.9858 6.36888 15.1398 6.5495 15.193C6.72949 15.2455 6.92199 15.1902 7.05636 15.0481C7.81634 14.2445 8.99132 13.002 8.99132 13.002C8.99132 13.002 11.2238 14.8353 12.49 15.8454ZM5.60889 9.77151L6.65825 13.6481L6.89136 11.1932C6.89136 11.1932 10.9456 7.09751 13.2568 4.76301C13.3243 4.69441 13.3337 4.57961 13.2775 4.49911C13.2218 4.41861 13.1193 4.39971 13.0425 4.45431C10.3638 6.37021 5.60889 9.77151 5.60889 9.77151Z" fill="white"/>
</svg>
